<?xml version="1.0" encoding="UTF-8"?>
<svg xmlns="http://www.w3.org/2000/svg" viewBox="0 0 700.44 700">
  <defs>
    <style>
      .cls-1 {
        letter-spacing: -.01em;
      }

      .cls-2 {
        letter-spacing: 0em;
      }

      .cls-3 {
        font-size: 48px;
      }

      .cls-3, .cls-4 {
        fill: #fff;
        font-family: MyriadPro-Regular, 'Myriad Pro';
      }

      .cls-5 {
        fill: none;
        stroke: #000;
        stroke-miterlimit: 10;
      }

      .cls-6 {
        letter-spacing: 0em;
      }

      .cls-7 {
        fill: #9b0000;
      }

      .cls-8 {
        letter-spacing: 0em;
      }

      .cls-4 {
        font-size: 36px;
      }

      .cls-9 {
        letter-spacing: .02em;
      }

      .cls-10 {
        fill: #0000bd;
      }

      .cls-11 {
        letter-spacing: -.02em;
      }

      .cls-12 {
        letter-spacing: -.03em;
      }

      .cls-13 {
        letter-spacing: 0em;
      }

      .cls-14 {
        letter-spacing: 0em;
      }

      .cls-15 {
        letter-spacing: 0em;
      }

      .cls-16 {
        letter-spacing: 0em;
      }

      .cls-17 {
        letter-spacing: 0em;
      }

      .cls-18 {
        fill: #00c500;
      }
    </style>
  </defs>
  <g id="Layer_1" data-name="Layer 1">
    <g>
      <path class="cls-7" d="M350,699.5c-93.35,0-181.12-36.35-247.13-102.37S.5,443.35,.5,350,36.85,168.88,102.87,102.87,256.65,.5,350,.5s181.12,36.35,247.13,102.37,102.37,153.78,102.37,247.13-36.35,181.12-102.37,247.13-153.78,102.37-247.13,102.37Z"/>
      <path d="M350,1c47.12,0,92.82,9.23,135.85,27.43,41.56,17.58,78.88,42.74,110.93,74.79,32.05,32.05,57.22,69.38,74.79,110.93,18.2,43.03,27.43,88.73,27.43,135.85s-9.23,92.82-27.43,135.85c-17.58,41.56-42.74,78.88-74.79,110.93-32.05,32.05-69.38,57.22-110.93,74.79-43.03,18.2-88.73,27.43-135.85,27.43s-92.82-9.23-135.85-27.43c-41.56-17.58-78.88-42.74-110.93-74.79-32.05-32.05-57.22-69.38-74.79-110.93C10.23,442.82,1,397.12,1,350s9.23-92.82,27.43-135.85c17.58-41.56,42.74-78.88,74.79-110.93,32.05-32.05,69.38-57.22,110.93-74.79C257.18,10.23,302.88,1,350,1m0-1C156.7,0,0,156.7,0,350s156.7,350,350,350,350-156.7,350-350S543.3,0,350,0h0Z"/>
    </g>
    <g id="Layer_2" data-name="Layer 2">
      <g>
        <path class="cls-18" d="M656.76,518.67c-17.87-12.46-38.52-24.23-63.12-35.96-8.54-4.07-16.2-7.56-23.42-10.66-5.31-2.28-10.71-4.54-15.46-6.54l-8.38-3.51-1.08-.46c-19.47-8.33-34-15.65-47.11-23.74-6.25-3.85-12.49-7.94-18.52-11.9-7.75-5.08-15.77-10.33-23.88-15.14-9.43-5.58-20.21-11.07-33.91-17.25-13.21-11.26-26.86-21.7-38.49-30.43-23.16-17.4-41.89-28.93-60.75-37.36-3.66-1.64-7.28-3.15-10.34-4.4-.81-.33-1.62-.65-2.43-.97-.52-.21-1.78-.71-1.88-.75h0c-6.34-2.77-12.56-5.67-18.5-8.63-10.35-5.16-21.12-11.06-32.91-18.02-9.24-5.45-18.51-11.18-27.47-16.72-12.24-7.56-24.89-15.37-37.63-22.61-3.67-2.08-7.34-4.16-11.02-6.23-8.47-4.78-17.23-9.72-25.77-14.7-5.45-3.17-10.93-6.51-16.22-9.73-6.91-4.2-14.05-8.55-21.21-12.6-7.55-4.26-15.08-8.31-24.05-13.07l-.16-.19c-.15-.18-.29-.35-.45-.52-12.1-12.93-27.19-22.64-41.5-26.72,30.52-50.54,73.63-92.84,124.71-122.38C228.65,16.93,289.04,.78,350.44,.78c93.35,0,181.12,36.35,247.13,102.37,66.01,66.01,102.37,153.78,102.37,247.13,0,58.9-14.93,117.12-43.18,168.39Z"/>
        <path d="M350.44,1.28c47.12,0,92.82,9.23,135.85,27.43,41.56,17.58,78.88,42.74,110.93,74.79,32.05,32.05,57.22,69.38,74.79,110.93,18.2,43.03,27.43,88.73,27.43,135.85,0,29.99-3.81,59.77-11.33,88.51-7.2,27.53-17.8,54.15-31.53,79.15-17.78-12.36-38.32-24.04-62.73-35.68-8.56-4.08-16.22-7.57-23.43-10.67-5.29-2.28-10.7-4.54-15.47-6.54l-2.77-1.16-2.57-1.08-3.04-1.27-1.08-.46c-19.44-8.32-33.95-15.63-47.05-23.7-6.24-3.85-12.48-7.93-18.51-11.89-7.75-5.08-15.77-10.34-23.9-15.15-9.44-5.59-20.22-11.07-33.9-17.25-13.2-11.25-26.84-21.68-38.46-30.41-23.19-17.43-41.95-28.97-60.84-37.42-3.71-1.66-7.48-3.23-10.36-4.41-.81-.33-1.62-.65-2.44-.97-.52-.21-1.04-.41-1.56-.62-.1-.04-.2-.08-.29-.12h0c-6.33-2.76-12.55-5.66-18.48-8.62-10.34-5.15-21.1-11.04-32.88-18-9.23-5.45-18.5-11.18-27.46-16.71-12.24-7.56-24.9-15.38-37.65-22.62-3.66-2.08-7.33-4.15-11-6.22-8.47-4.78-17.24-9.73-25.78-14.71-5.44-3.17-10.92-6.51-16.21-9.73-6.91-4.21-14.05-8.56-21.23-12.61-7.53-4.25-15.04-8.29-23.98-13.03-.03-.04-.06-.07-.09-.11-.15-.18-.31-.37-.47-.55-11.98-12.8-26.89-22.47-41.1-26.68,30.45-50.21,73.38-92.26,124.2-121.65,25.96-15.01,53.75-26.6,82.61-34.45,29.76-8.09,60.64-12.2,91.78-12.2m0-1C223.02,.28,111.53,68.39,50.32,170.17c16.05,4.4,31.16,15.29,41.9,26.76,.23,.25,.43,.51,.65,.76,8.09,4.29,16.15,8.61,24.12,13.11,12.66,7.14,24.87,15.01,37.43,22.33,12.19,7.1,24.52,13.97,36.8,20.94,22.07,12.53,43.25,26.42,65.1,39.32,10.78,6.37,21.74,12.45,32.94,18.04,6.1,3.04,12.28,5.91,18.53,8.64-.46-.2-1.57-.64-1.58-.64-.01,0,.45,.19,1.9,.77,1.33,.53,2.67,1.05,3.99,1.59,3.46,1.42,6.91,2.87,10.33,4.4,21.73,9.72,41.67,23.04,60.65,37.3,13.05,9.81,26.06,19.84,38.52,30.46,11.58,5.22,23.01,10.79,33.93,17.25,14.43,8.54,28.13,18.23,42.4,27.03,15.06,9.28,30.94,16.82,47.18,23.77,.38,.16,.78,.33,1.08,.46,1.01,.43,2.03,.85,3.04,1.28,1.78,.75,3.56,1.49,5.34,2.23,5.16,2.16,10.32,4.32,15.46,6.53,7.88,3.39,15.66,6.96,23.4,10.65,22.1,10.54,43.54,22.26,63.5,36.24,27.72-50.13,43.51-107.78,43.51-169.12C700.44,156.98,543.74,.28,350.44,.28h0Z"/>
      </g>
    </g>
  </g>
  <g id="Layer_3" data-name="Layer 3">
    <g>
      <path class="cls-10" d="M399.16,380.72c1.04,1.06,1.98,2.22,2.77,3.48-.65-1.43-1.59-2.58-2.77-3.48Z"/>
      <path d="M399.16,380.72c1.04,1.06,1.98,2.22,2.77,3.48-.65-1.43-1.59-2.58-2.77-3.48h0Z"/>
    </g>
    <g>
      <path class="cls-10" d="M650.3,529.85c-2.12-1.46-4.29-2.9-6.4-4.29l-.09-.06c-.43-.29-.85-.59-1.28-.89-.68-.48-1.38-.98-2.11-1.42-.18-.11-.3-.17-.39-.22l-.02-.02-1.27-.96c-3.06-2.3-5.94-4.48-9.24-6.41-1.71-1-3.41-2.02-5.13-3.04-9.59-5.7-19.5-11.59-29.91-15.79-1.75-.7-3.53-1.38-5.26-2.02-.82-.31-1.63-.61-2.45-.92-.26-.1-1.07-.48-1.72-.78q-1.25-.58-1.39-.58h-.04c-.55-.26-1.1-.53-1.64-.83-.56-.3-1.11-.66-1.65-1-.05-.04-.11-.07-.17-.1-.06-.19-.33-.35-1.12-.83-.65-.39-1.53-.93-1.83-1.17-3.01-2.36-6.26-4.85-9.59-7.11-3.15-2.13-6.44-4.17-9.62-6.13-2-1.24-4.01-2.48-6-3.75-2.13-1.37-4.34-2.86-6.96-4.71-.26-.18-.47-.33-.66-.46-.13-.12-.36-.33-.64-.58l-.43-.38c-1.14-1.01-2.32-2.06-3.44-3.12-3.49-3.32-8.33-5.43-13.31-5.81-.61-.74-1.28-1.42-1.99-2.04-6.53-5.62-13.49-10.53-20.7-14.61-2.64-1.49-5.37-2.91-8.01-4.28-3.83-1.99-7.78-4.04-11.52-6.35-2.16-1.33-4.33-2.78-6.42-4.18-4.07-2.72-8.27-5.53-12.73-7.71-1.8-.88-3.68-1.69-5.3-2.38-1.07-.96-2.21-1.88-3.37-2.73-1.96-1.43-4.27-2.35-6.87-2.75-1.93-1.21-3.92-2.21-6.25-3.16-2.51-1.88-5.24-3.55-7.88-5.17-.72-.44-1.43-.88-2.12-1.31-1.08-.67-2.14-1.36-3.2-2.05-3.1-2.01-6.32-4.09-9.79-5.64-.99-.44-1.98-.85-2.98-1.26-.82-.34-1.63-.67-2.44-1.02l-.35-.16c-2.34-1.1-4.44-2.12-6.41-3.38-1.21-.78-2.41-1.65-3.56-2.49-.95-.69-1.89-1.37-2.86-2.02-.86-.58-1.73-1.16-2.61-1.72-2.77-2.69-6.17-4.61-9.87-5.59-1-2.88-2.63-5.32-4.85-7.28-6.9-6.08-13.34-10.17-20.22-12.87,.42-2.76,.29-5.55-.39-8.32-.72-2.96-1.7-6.07-2.99-9.5,2.55-6.21,2.79-13.66,.69-22.14-.3-1.22-.67-2.47-1.13-3.83,.7-2.1,1.01-4.23,.94-6.35-.15-4.35-.78-9.06-1.94-14.4-.19-.9-.41-1.8-.62-2.69-.21-.9-.43-1.8-.62-2.71-.03-.15-.11-.65-.19-1.23-.08-.52-.16-1.11-.24-1.55,.04-1.01,.06-2.67,.07-3.23,.05-.2,.11-.45,.18-.78,1.08-4.96,1.83-9.74,2.24-14.21,.74-8.2-.46-16.58-1.63-24.68-.87-6.06-1.77-12.33-1.84-18.44-.05-4.09-1.44-8.28-3.94-11.82,1.22-6.98,1.09-14.56,.97-21.25-.03-1.45-.05-2.87-.06-4.24-.07-8.55-.69-17.25-1.84-25.84-.53-3.94-1.14-8.21-1.86-13.07-.05-.35-.17-1.2-.28-2.05-.15-1.09-.23-1.74-.31-2.12v-.08c-.21-1.75-.42-3.56-.54-5.34-.28-3.79-.25-7.8,.08-11.92,.04-.45,.11-1.2,.18-1.87,.1-.95,.13-1.32,.13-1.43,.23-1.53,.5-3.13,.77-4.73,1.69-9.9,2.94-18.29,3.92-26.27,.06-.27,.12-.69,.21-1.35,.09-.68,.2-1.45,.27-1.89,.15-1,.84-5.35,.84-5.35,.79-5.06,1.6-10.5,2.2-15.98,1.05-9.75,.14-18.73-.9-26.23-1.68-12.19-3.95-25.04-9.07-36.62,.97-.01,1.94-.02,2.91-.02,93.35,0,181.12,36.35,247.13,102.37,66.01,66.01,102.37,153.78,102.37,247.13,0,63.38-17.16,125.46-49.64,179.57Z"/>
      <path d="M350.44,1.28c47.12,0,92.82,9.23,135.85,27.43,41.56,17.58,78.88,42.74,110.93,74.79,32.05,32.05,57.22,69.38,74.79,110.93,18.2,43.03,27.43,88.73,27.43,135.85,0,63.11-17.04,124.93-49.3,178.86-1.97-1.35-3.98-2.68-5.94-3.97l-.12-.08c-.43-.28-.85-.58-1.27-.88-.69-.49-1.4-.99-2.14-1.43-.15-.09-.25-.15-.34-.19l-.07-.05-1.23-.93c-3.07-2.31-5.97-4.49-9.28-6.44-1.71-1-3.41-2.02-5.12-3.03-9.6-5.71-19.53-11.61-29.97-15.83-1.75-.71-3.54-1.38-5.27-2.03-.82-.31-1.63-.61-2.44-.92-.24-.09-1.08-.48-1.69-.77-1.22-.57-1.34-.62-1.54-.63-.51-.25-1.03-.5-1.52-.77-.54-.29-1.06-.63-1.62-.98-.02-.02-.05-.03-.07-.05-.2-.28-.6-.52-1.23-.9-.6-.36-1.5-.91-1.78-1.13-3.02-2.36-6.27-4.86-9.62-7.13-3.16-2.14-6.46-4.18-9.65-6.15-1.97-1.22-4-2.47-5.98-3.74-2.11-1.35-4.38-2.89-6.94-4.7-.23-.16-.43-.3-.6-.42-.18-.16-.39-.35-.65-.59l-.38-.34c-1.15-1.02-2.34-2.08-3.47-3.15-3.52-3.35-8.38-5.49-13.41-5.93-.59-.7-1.23-1.35-1.92-1.94-6.55-5.64-13.55-10.57-20.79-14.66-2.65-1.5-5.39-2.92-8.03-4.29-3.82-1.98-7.76-4.03-11.48-6.33-2.15-1.33-4.31-2.78-6.4-4.17-4.08-2.73-8.3-5.55-12.78-7.74-1.8-.88-3.64-1.68-5.25-2.36-1.07-.96-2.19-1.87-3.35-2.71-2-1.46-4.35-2.4-6.99-2.82-1.91-1.19-3.88-2.19-6.18-3.12-2.51-1.87-5.23-3.54-7.86-5.15-.72-.44-1.43-.88-2.13-1.31-1.07-.67-2.15-1.37-3.2-2.05-3.12-2.02-6.34-4.11-9.86-5.68-1-.44-2.02-.87-3.01-1.27-.81-.33-1.62-.67-2.39-1l-.12-.06-.25-.12c-2.32-1.09-4.41-2.1-6.35-3.35-1.2-.77-2.39-1.63-3.54-2.47-.93-.68-1.9-1.38-2.87-2.03-.87-.58-1.72-1.15-2.58-1.7-2.76-2.66-6.13-4.59-9.8-5.61-1.03-2.85-2.68-5.28-4.9-7.24-6.83-6.01-13.21-10.09-20-12.81,.36-2.69,.2-5.42-.45-8.12-.71-2.92-1.67-5.99-2.94-9.38,2.53-6.27,2.74-13.76,.64-22.27-.29-1.19-.65-2.4-1.09-3.71,.68-2.1,.99-4.24,.91-6.36-.15-4.38-.79-9.12-1.95-14.49-.2-.9-.41-1.8-.62-2.7-.21-.9-.43-1.79-.62-2.7-.03-.12-.11-.71-.18-1.18-.07-.51-.16-1.08-.23-1.52,.04-1.04,.06-2.65,.06-3.13,.05-.19,.1-.43,.17-.74,1.09-4.99,1.84-9.79,2.25-14.27,.74-8.26-.46-16.67-1.63-24.8-.87-6.04-1.76-12.3-1.83-18.37-.05-4.12-1.43-8.34-3.91-11.93,1.19-6.97,1.06-14.49,.94-21.14-.03-1.45-.05-2.87-.06-4.24-.07-8.57-.69-17.29-1.85-25.9-.53-3.93-1.14-8.2-1.87-13.08-.05-.35-.16-1.19-.28-2.04-.08-.57-.15-1.13-.21-1.56-.03-.25-.07-.49-.12-.7-.2-1.72-.4-3.5-.53-5.25-.27-3.77-.25-7.75,.08-11.84,.04-.45,.11-1.2,.18-1.87,.09-.85,.12-1.2,.13-1.37,.21-1.4,.45-2.91,.77-4.74,1.7-9.92,2.95-18.34,3.93-26.36,.07-.32,.12-.73,.2-1.27,.09-.68,.2-1.45,.27-1.88,.16-1.01,.32-2.03,.48-3.04,.12-.77,.24-1.54,.36-2.3,.79-5.06,1.6-10.5,2.2-16.01,1.06-9.8,.14-18.82-.9-26.35-1.66-11.98-3.87-24.6-8.81-36.06,.72,0,1.43-.01,2.15-.01m0-1c-1.23,0-2.45,.02-3.68,.03,5.28,11.63,7.62,24.67,9.34,37.18,1.22,8.82,1.86,17.23,.9,26.11-.58,5.34-1.36,10.66-2.19,15.96-.28,1.78-.57,3.56-.84,5.35-.14,.91-.45,3.28-.47,3.28,0,0,.03-.38,.15-1.38-1.1,9.27-2.5,18.41-4.08,27.6-.27,1.6-.54,3.21-.78,4.81,0,.2-.24,2.35-.31,3.26-.32,3.99-.37,8-.08,11.99,.16,2.18,.43,4.35,.67,6.53-.1-.88-.13-1.22-.13-1.22,.02,0,.47,3.49,.59,4.32,.65,4.35,1.28,8.7,1.86,13.06,1.15,8.55,1.77,17.15,1.84,25.78,.06,7.83,.58,17.13-.94,25.61,2.44,3.4,3.92,7.52,3.97,11.71,.16,14.31,4.75,28.8,3.46,43.07-.43,4.73-1.21,9.5-2.23,14.15-.08,.36-.14,.61-.19,.82,0,.49-.03,2.29-.07,3.32,.15,.93,.37,2.55,.44,2.85,.39,1.81,.86,3.59,1.25,5.4,1.02,4.7,1.76,9.5,1.93,14.31,.08,2.21-.29,4.34-.97,6.33,.44,1.29,.84,2.61,1.17,3.95,1.84,7.46,2.12,15.2-.75,22.01,1.19,3.15,2.24,6.35,3.04,9.63,.71,2.93,.78,5.8,.32,8.52,7.7,2.95,14.2,7.41,20.45,12.92,2.34,2.06,3.89,4.59,4.79,7.32,3.71,.93,7.19,2.87,9.95,5.56,.89,.56,1.77,1.15,2.64,1.74,2.17,1.46,4.23,3.1,6.43,4.52,2.06,1.32,4.26,2.37,6.47,3.41,.14,.06,.26,.12,.36,.17,1.8,.78,3.62,1.49,5.41,2.28,4.61,2.05,8.67,5,12.93,7.66,3.27,2.04,6.84,4.11,10.02,6.49,2.33,.94,4.36,1.96,6.31,3.2,2.43,.36,4.75,1.21,6.75,2.67,1.2,.87,2.33,1.79,3.39,2.76,1.8,.77,3.6,1.54,5.36,2.4,6.72,3.28,12.75,7.95,19.1,11.87,6.33,3.91,13.08,6.99,19.55,10.64,7.35,4.15,14.23,9.04,20.62,14.55,.77,.67,1.46,1.38,2.07,2.14,4.86,.33,9.66,2.31,13.22,5.69,1.27,1.21,2.57,2.36,3.88,3.52,.28,.25,.51,.45,.69,.62,.18,.13,.4,.27,.65,.45,2.3,1.62,4.61,3.2,6.98,4.72,5.18,3.32,10.5,6.43,15.6,9.88,3.29,2.23,6.44,4.64,9.56,7.09,.57,.45,2.85,1.76,2.75,1.76-.04,0-.43-.2-1.42-.72,1.2,.63,2.31,1.47,3.51,2.12,1.19,.65,2.43,1.18,3.63,1.79-1.3-.67-1.74-.91-1.71-.91,.08,0,2.42,1.13,2.94,1.33,2.57,.98,5.15,1.91,7.7,2.94,12.21,4.93,23.63,12.13,34.97,18.8,3.71,2.18,6.97,4.72,10.42,7.31,.05,.04,.08,.06,.13,.1,.08,.04,.19,.1,.36,.21,1.16,.69,2.25,1.54,3.37,2.29,2.32,1.53,4.64,3.07,6.92,4.65,31.72-52.66,49.99-114.33,49.99-180.28C700.44,156.98,543.74,.28,350.44,.28h0Z"/>
    </g>
    <line class="cls-5" x1="349.5" y1="4.5" x2="361.5" y2="353.5"/>
    <text class="cls-3" transform="translate(117.34 455.07)"><tspan class="cls-9" x="0" y="0">K</tspan><tspan x="26.78" y="0">a</tspan><tspan class="cls-17" x="49.92" y="0">r</tspan><tspan x="65.81" y="0">bo</tspan><tspan class="cls-1" x="119.47" y="0">h</tspan><tspan class="cls-8" x="145.49" y="0">y</tspan><tspan x="167.61" y="0">d</tspan><tspan class="cls-14" x="194.69" y="0">r</tspan><tspan class="cls-16" x="210.14" y="0">a</tspan><tspan class="cls-15" x="233.08" y="0">t</tspan><tspan class="cls-13" x="248.69" y="0">er</tspan><tspan x="0" y="57.6">40g</tspan></text>
    <text class="cls-4" transform="translate(188.25 139.86)"><tspan class="cls-11" x="0" y="0">P</tspan><tspan class="cls-2" x="18.58" y="0">r</tspan><tspan x="29.99" y="0">o</tspan><tspan class="cls-6" x="49.75" y="0">t</tspan><tspan x="61.45" y="0">ein </tspan><tspan x="0" y="43.2">12g</tspan></text>
    <text class="cls-4" transform="translate(440.13 239.86)"><tspan class="cls-12" x="0" y="0">F</tspan><tspan x="16.42" y="0">ett</tspan><tspan x="0" y="43.2">30g</tspan></text>
  </g>
</svg>