<?xml version="1.0" encoding="UTF-8"?>
<svg xmlns="http://www.w3.org/2000/svg" viewBox="0 0 669.57 695.87">
  <defs>
    <style>
      .cls-1 {
        letter-spacing: 0em;
      }

      .cls-2 {
        font-family: MyriadPro-Regular, 'Myriad Pro';
        font-size: 60px;
      }

      .cls-3 {
        letter-spacing: -.01em;
      }

      .cls-4 {
        letter-spacing: 0em;
      }

      .cls-5 {
        letter-spacing: 0em;
      }

      .cls-6 {
        letter-spacing: 0em;
      }

      .cls-7 {
        letter-spacing: .39em;
      }

      .cls-8 {
        fill: #ff0;
      }

      .cls-9 {
        fill: #008f0e;
        stroke: #000;
        stroke-miterlimit: 10;
      }
    </style>
  </defs>
  <g id="Layer_4" data-name="Layer 4">
    <polygon class="cls-8" points="536.25 638.92 331.16 527.34 122.97 633.03 165.72 403.49 .86 238.15 232.37 207.88 338.68 0 439.02 210.82 669.57 247.69 500.07 408.26 536.25 638.92"/>
    <polygon class="cls-8" points="328.03 695.87 230.12 483.91 0 444.4 171.33 285.78 137.79 54.72 341.59 168.65 550.98 65.35 505.6 294.38 668.55 461.6 436.71 489.22 328.03 695.87"/>
  </g>
  <g id="Layer_1" data-name="Layer 1">
    <circle class="cls-9" cx="334.62" cy="357.44" r="250"/>
  </g>
  <g id="Layer_2" data-name="Layer 2">
    <polygon class="cls-8" points="399.34 457.68 334.24 423.17 268.91 457.22 281.62 384.64 229.05 333.03 302 322.69 334.84 256.74 367.21 322.93 440.09 333.78 387.14 385.02 399.34 457.68"/>
  </g>
  <g id="Layer_3" data-name="Layer 3">
    <text class="cls-2" transform="translate(118.31 368.95)"><tspan x="0" y="0">G</tspan><tspan class="cls-5" x="38.76" y="0">r</tspan><tspan x="57.78" y="0">øn</tspan><tspan class="cls-3" x="124.02" y="0">n</tspan><tspan class="cls-1" x="156.54" y="0">v</tspan><tspan x="185.16" y="0">asket m</tspan><tspan class="cls-6" x="378.66" y="0">a</tspan><tspan x="407.34" y="0">t</tspan><tspan class="cls-7" x="0" y="72" xml:space="preserve">					</tspan><tspan class="cls-4" x="180" y="72">AS</tspan></text>
  </g>
</svg>