<?xml version="1.0" encoding="UTF-8"?>
<svg id="Layer_1" data-name="Layer 1" xmlns="http://www.w3.org/2000/svg" viewBox="0 0 1000 1000">
  <path fill="#FFFFFF" stroke="#FFFFFF" d="m287.87,786.94c-19.9,0-38.61-7.75-52.68-21.82-29.04-29.05-29.04-76.31,0-105.35l159.77-159.77-159.44-159.44c-14.07-14.07-21.82-32.78-21.82-52.68s7.75-38.61,21.82-52.68c14.07-14.07,32.78-21.81,52.68-21.81s38.61,7.75,52.67,21.81l159.45,159.45,159.13-159.14c14.07-14.07,32.78-21.82,52.68-21.82s38.61,7.75,52.67,21.82c14.07,14.07,21.82,32.78,21.82,52.68s-7.75,38.61-21.82,52.68l-159.13,159.13,159.46,159.46c29.05,29.05,29.05,76.31,0,105.36-14.07,14.07-32.78,21.81-52.68,21.81s-38.61-7.75-52.68-21.81l-159.46-159.46-159.76,159.76c-14.07,14.07-32.78,21.82-52.68,21.82Z"/>
  <path fill="#FFFFFF" stroke="#FFFFFF" d="m288.19,213.87c19.77,0,38.35,7.69,52.32,21.67l159.1,159.1.71.71.71-.71,158.78-158.79c13.98-13.98,32.56-21.67,52.33-21.67s38.35,7.7,52.32,21.67c28.85,28.85,28.85,75.8,0,104.66l-158.78,158.78-.71.71.71.71,159.11,159.11c13.98,13.98,21.67,32.56,21.67,52.33s-7.7,38.35-21.67,52.33c-13.98,13.97-32.56,21.67-52.33,21.67s-38.35-7.69-52.33-21.67l-159.11-159.11-.71-.71-.71.71-159.41,159.41c-13.98,13.98-32.56,21.67-52.33,21.67s-38.35-7.7-52.33-21.67c-28.85-28.86-28.85-75.8,0-104.65l159.42-159.42.71-.71-.71-.71-159.09-159.09c-28.85-28.85-28.85-75.8,0-104.66,13.98-13.97,32.56-21.67,52.33-21.67m0-1c-19.19,0-38.39,7.32-53.03,21.96-29.29,29.29-29.29,76.78,0,106.07l159.09,159.09-159.42,159.42c-29.28,29.28-29.28,76.77,0,106.06,14.65,14.65,33.84,21.97,53.04,21.97s38.39-7.32,53.03-21.97l159.41-159.41,159.11,159.11c14.65,14.64,33.84,21.96,53.04,21.96s38.39-7.32,53.03-21.96c29.29-29.29,29.29-76.78,0-106.07l-159.11-159.11,158.78-158.78c29.29-29.29,29.29-76.78,0-106.07-14.64-14.65-33.83-21.97-53.03-21.97s-38.39,7.32-53.03,21.97l-158.78,158.79-159.1-159.1c-14.64-14.64-33.83-21.96-53.03-21.96h0Z"/>
</svg>