<?xml version="1.0" encoding="UTF-8"?>
<svg id="Layer_1" data-name="Layer 1" xmlns="http://www.w3.org/2000/svg" viewBox="0 0 1000 1000">
  <g>
    <path fill="#FFFFFF" stroke="#FFFFFF" d="m200,338.5c-41.08,0-74.5-33.42-74.5-74.5s33.42-74.5,74.5-74.5h600c41.08,0,74.5,33.42,74.5,74.5s-33.42,74.5-74.5,74.5H200Z"/>
    <path d="m800,190c40.8,0,74,33.2,74,74s-33.2,74-74,74H200c-40.8,0-74-33.2-74-74s33.2-74,74-74h600m0-1H200c-41.42,0-75,33.58-75,75s33.58,75,75,75h600c41.42,0,75-33.58,75-75s-33.58-75-75-75h0Z"/>
  </g>
  <g>
    <path fill="#FFFFFF" stroke="#FFFFFF" d="m200.32,574.5c-41.08,0-74.5-33.42-74.5-74.5s33.42-74.5,74.5-74.5h600c41.08,0,74.5,33.42,74.5,74.5s-33.42,74.5-74.5,74.5H200.32Z"/>
    <path fill="#FFFFFF" stroke="#FFFFFF" d="m800.32,426c40.8,0,74,33.2,74,74s-33.2,74-74,74H200.32c-40.8,0-74-33.2-74-74s33.2-74,74-74h600m0-1H200.32c-41.42,0-75,33.58-75,75s33.58,75,75,75h600c41.42,0,75-33.58,75-75s-33.58-75-75-75h0Z"/>
  </g>
  <g>
    <path fill="#FFFFFF" stroke="#FFFFFF" d="m200.32,810.5c-41.08,0-74.5-33.42-74.5-74.5s33.42-74.5,74.5-74.5h600c41.08,0,74.5,33.42,74.5,74.5s-33.42,74.5-74.5,74.5H200.32Z"/>
    <path fill="#FFFFFF" stroke="#FFFFFF" d="m800.32,662c40.8,0,74,33.2,74,74s-33.2,74-74,74H200.32c-40.8,0-74-33.2-74-74s33.2-74,74-74h600m0-1H200.32c-41.42,0-75,33.58-75,75s33.58,75,75,75h600c41.42,0,75-33.58,75-75s-33.58-75-75-75h0Z"/>
  </g>
</svg>